<?xml version="1.0" encoding="UTF-8" standalone="no"?>
<!DOCTYPE svg PUBLIC "-//W3C//DTD SVG 1.1//EN" "http://www.w3.org/Graphics/SVG/1.1/DTD/svg11.dtd">
<svg preserveAspectRatio="meet" viewBox="-128 -128 11776 4864" width="100%" height="100%" version="1.1" xmlns="http://www.w3.org/2000/svg">
<rect fill="#000" x="0" y="0" width="11648" height="4736"/><rect fill="#171717" x="128" y="128" width="896" height="640"/>
<polyline stroke="#0000" stroke-width="0" points="128,128 1024,128 1024,768 128,768 128,128"  fill="#0000"/>
<rect fill="#171717" x="2048" y="128" width="1152" height="640"/>
<polyline stroke="#0000" stroke-width="0" points="2048,128 3200,128 3200,768 2048,768 2048,128"  fill="#0000"/>
<rect fill="#171717" x="2048" y="1792" width="640" height="640"/>
<polyline stroke="#0000" stroke-width="0" points="2048,1792 2688,1792 2688,2432 2048,2432 2048,1792"  fill="#0000"/>
<rect fill="#171717" x="4224" y="128" width="640" height="640"/>
<polyline stroke="#0000" stroke-width="0" points="4224,128 4864,128 4864,768 4224,768 4224,128"  fill="#0000"/>
<rect fill="#171717" x="4224" y="1792" width="1152" height="896"/>
<polyline stroke="#0000" stroke-width="0" points="4224,1792 5376,1792 5376,2688 4224,2688 4224,1792"  fill="#0000"/>
<rect fill="#171717" x="4224" y="3712" width="1536" height="896"/>
<polyline stroke="#0000" stroke-width="0" points="4224,3712 5760,3712 5760,4608 4224,4608 4224,3712"  fill="#0000"/>
<rect fill="#171717" x="6784" y="1792" width="4736" height="640"/>
<polyline stroke="#0000" stroke-width="0" points="6784,1792 11520,1792 11520,2432 6784,2432 6784,1792"  fill="#0000"/>
<path stroke="#a0a0a0" stroke-width="48" fill="#0000" d="M 576,768 C 576,1280 2368,1280 2368,1792"/>
<path stroke="#00b2ff" stroke-width="48" fill="#0000" d="M 2624,768 C 2624,1280 4544,1280 4544,1792"/>
<path stroke="#00cb9d" stroke-width="48" fill="#0000" d="M 4544,768 C 4544,1280 5056,1280 5056,1792"/>
<path stroke="#00b2ff" stroke-width="48" fill="#0000" d="M 2368,2432 C 2368,2944 4544,3200 4544,3712"/>
<path stroke="#00cb9d" stroke-width="48" fill="#0000" d="M 4800,2688 C 4800,3200 4992,3200 4992,3712"/>
<path stroke="#c49d00" stroke-width="48" fill="#0000" d="M 9152,2432 C 9152,2944 5440,3200 5440,3712"/>
<text fill="#a0a0a0" font-size="464" font-family="monospace" x="320" y="576" textLength="512">42</text>
<text fill="#a0a0a0" font-size="464" font-family="monospace" x="2240" y="576" textLength="768">256</text>
<text fill="#a0a0a0" font-size="464" font-family="monospace" x="2240" y="2240" textLength="256">-</text>
<text fill="#a0a0a0" font-size="464" font-family="monospace" x="4416" y="576" textLength="256">7</text>
<text fill="#a0a0a0" font-size="232" font-family="monospace" x="4352" y="2000" textLength="384">in0</text>
<text fill="#a0a0a0" font-size="232" font-family="monospace" x="4864" y="2000" textLength="384">in1</text>
<text fill="#a0a0a0" font-size="464" font-family="monospace" x="4672" y="2496" textLength="256">+</text>
<text fill="#a0a0a0" font-size="232" font-family="monospace" x="4352" y="3920" textLength="384">in0</text>
<text fill="#a0a0a0" font-size="232" font-family="monospace" x="4800" y="3920" textLength="384">in1</text>
<text fill="#a0a0a0" font-size="232" font-family="monospace" x="5248" y="3920" textLength="384">in2</text>
<text fill="#a0a0a0" font-size="464" font-family="monospace" x="4864" y="4416" textLength="256">+</text>
<text fill="#a0a0a0" font-size="464" font-family="monospace" x="6976" y="2240" textLength="4352">P0[6](2)(invalid)</text>

</svg>