<?xml version="1.0" encoding="UTF-8" standalone="no"?>
<!DOCTYPE svg PUBLIC "-//W3C//DTD SVG 1.1//EN" "http://www.w3.org/Graphics/SVG/1.1/DTD/svg11.dtd">
<svg preserveAspectRatio="meet" viewBox="-128 -128 11776 6912" width="100%" height="100%" version="1.1" xmlns="http://www.w3.org/2000/svg">
<rect fill="#000" x="0" y="0" width="11648" height="6784"/><rect fill="#171717" x="128" y="128" width="896" height="640"/>
<polyline stroke="#0000" stroke-width="0" points="128,128 1024,128 1024,768 128,768 128,128"  fill="#0000"/>
<rect fill="#171717" x="2048" y="128" width="1152" height="640"/>
<polyline stroke="#0000" stroke-width="0" points="2048,128 3200,128 3200,768 2048,768 2048,128"  fill="#0000"/>
<rect fill="#171717" x="2048" y="2816" width="640" height="640"/>
<polyline stroke="#0000" stroke-width="0" points="2048,2816 2688,2816 2688,3456 2048,3456 2048,2816"  fill="#0000"/>
<rect fill="#171717" x="4224" y="128" width="640" height="640"/>
<polyline stroke="#0000" stroke-width="0" points="4224,128 4864,128 4864,768 4224,768 4224,128"  fill="#0000"/>
<rect fill="#171717" x="4224" y="2816" width="1152" height="896"/>
<polyline stroke="#0000" stroke-width="0" points="4224,2816 5376,2816 5376,3712 4224,3712 4224,2816"  fill="#0000"/>
<rect fill="#171717" x="4224" y="5760" width="1536" height="896"/>
<polyline stroke="#0000" stroke-width="0" points="4224,5760 5760,5760 5760,6656 4224,6656 4224,5760"  fill="#0000"/>
<rect fill="#171717" x="6784" y="2816" width="4736" height="640"/>
<polyline stroke="#0000" stroke-width="0" points="6784,2816 11520,2816 11520,3456 6784,3456 6784,2816"  fill="#0000"/>
<path stroke="#a0a0a0" stroke-width="48" fill="#0000" d="M 576,768 C 576,1792 2368,1792 2368,2816"/>
<path stroke="#00b2ff" stroke-width="48" fill="#0000" d="M 2624,768 C 2624,1792 4544,1792 4544,2816"/>
<path stroke="#00cb9d" stroke-width="48" fill="#0000" d="M 4544,768 C 4544,1792 5056,1792 5056,2816"/>
<path stroke="#00b2ff" stroke-width="48" fill="#0000" d="M 2368,3456 C 2368,4480 4544,4736 4544,5760"/>
<path stroke="#00cb9d" stroke-width="48" fill="#0000" d="M 4800,3712 C 4800,4736 4992,4736 4992,5760"/>
<path stroke="#c49d00" stroke-width="48" fill="#0000" d="M 9152,3456 C 9152,4480 5440,4736 5440,5760"/>
<text fill="#a0a0a0" font-size="464" font-family="monospace" x="320" y="576" textLength="512">42</text>
<text fill="#a0a0a0" font-size="464" font-family="monospace" x="2240" y="576" textLength="768">256</text>
<text fill="#a0a0a0" font-size="464" font-family="monospace" x="2240" y="3264" textLength="256">-</text>
<text fill="#a0a0a0" font-size="464" font-family="monospace" x="4416" y="576" textLength="256">7</text>
<text fill="#a0a0a0" font-size="232" font-family="monospace" x="4352" y="3024" textLength="384">in0</text>
<text fill="#a0a0a0" font-size="232" font-family="monospace" x="4864" y="3024" textLength="384">in1</text>
<text fill="#a0a0a0" font-size="464" font-family="monospace" x="4672" y="3520" textLength="256">+</text>
<text fill="#a0a0a0" font-size="232" font-family="monospace" x="4352" y="5968" textLength="384">in0</text>
<text fill="#a0a0a0" font-size="232" font-family="monospace" x="4800" y="5968" textLength="384">in1</text>
<text fill="#a0a0a0" font-size="232" font-family="monospace" x="5248" y="5968" textLength="384">in2</text>
<text fill="#a0a0a0" font-size="464" font-family="monospace" x="4864" y="6464" textLength="256">+</text>
<text fill="#a0a0a0" font-size="464" font-family="monospace" x="6976" y="3264" textLength="4352">P0[6](2)(invalid)</text>

</svg>