<?xml version="1.0" encoding="UTF-8" standalone="no"?>
<!DOCTYPE svg PUBLIC "-//W3C//DTD SVG 1.1//EN" "http://www.w3.org/Graphics/SVG/1.1/DTD/svg11.dtd">
<svg preserveAspectRatio="meet" viewBox="-128 -128 11520 4864" width="100%" height="100%" version="1.1" xmlns="http://www.w3.org/2000/svg">
<rect fill="#000" x="0" y="0" width="11392" height="4736"/><rect fill="#171717" x="128" y="128" width="896" height="640"/>
<polyline stroke="#0000" stroke-width="0" points="128,128 1024,128 1024,768 128,768 128,128"  fill="#0000"/>
<rect fill="#171717" x="128" y="1792" width="640" height="640"/>
<polyline stroke="#0000" stroke-width="0" points="128,1792 768,1792 768,2432 128,2432 128,1792"  fill="#0000"/>
<rect fill="#171717" x="128" y="3712" width="1536" height="896"/>
<polyline stroke="#0000" stroke-width="0" points="128,3712 1664,3712 1664,4608 128,4608 128,3712"  fill="#0000"/>
<rect fill="#171717" x="2688" y="128" width="1152" height="640"/>
<polyline stroke="#0000" stroke-width="0" points="2688,128 3840,128 3840,768 2688,768 2688,128"  fill="#0000"/>
<rect fill="#171717" x="2688" y="1792" width="1152" height="896"/>
<polyline stroke="#0000" stroke-width="0" points="2688,1792 3840,1792 3840,2688 2688,2688 2688,1792"  fill="#0000"/>
<rect fill="#171717" x="4864" y="1792" width="4736" height="640"/>
<polyline stroke="#0000" stroke-width="0" points="4864,1792 9600,1792 9600,2432 4864,2432 4864,1792"  fill="#0000"/>
<rect fill="#171717" x="10624" y="128" width="640" height="640"/>
<polyline stroke="#0000" stroke-width="0" points="10624,128 11264,128 11264,768 10624,768 10624,128"  fill="#0000"/>
<path stroke="#a0a0a0" stroke-width="48" fill="#0000" d="M 576,768 C 576,1280 448,1280 448,1792"/>
<path stroke="#a0a0a0" stroke-width="48" fill="#0000" d="M 448,2432 C 448,2944 448,3200 448,3712"/>
<path stroke="#00b2ff" stroke-width="48" fill="#0000" d="M 3264,2688 C 3264,3200 896,3200 896,3712"/>
<path stroke="#00cb9d" stroke-width="48" fill="#0000" d="M 7232,2432 C 7232,2944 1344,3200 1344,3712"/>
<path stroke="#00b2ff" stroke-width="48" fill="#0000" d="M 3264,768 C 3264,1280 3008,1280 3008,1792"/>
<path stroke="#c49d00" stroke-width="48" fill="#0000" d="M 10944,768 C 10944,1280 3520,1280 3520,1792"/>
<text fill="#a0a0a0" font-size="464" font-family="monospace" x="320" y="576" textLength="512">42</text>
<text fill="#a0a0a0" font-size="464" font-family="monospace" x="320" y="2240" textLength="256">-</text>
<text fill="#a0a0a0" font-size="232" font-family="monospace" x="256" y="3920" textLength="384">in0</text>
<text fill="#a0a0a0" font-size="232" font-family="monospace" x="704" y="3920" textLength="384">in1</text>
<text fill="#a0a0a0" font-size="232" font-family="monospace" x="1152" y="3920" textLength="384">in2</text>
<text fill="#a0a0a0" font-size="464" font-family="monospace" x="768" y="4416" textLength="256">+</text>
<text fill="#a0a0a0" font-size="464" font-family="monospace" x="2880" y="576" textLength="768">256</text>
<text fill="#a0a0a0" font-size="232" font-family="monospace" x="2816" y="2000" textLength="384">in0</text>
<text fill="#a0a0a0" font-size="232" font-family="monospace" x="3328" y="2000" textLength="384">in1</text>
<text fill="#a0a0a0" font-size="464" font-family="monospace" x="3136" y="2496" textLength="256">+</text>
<text fill="#a0a0a0" font-size="464" font-family="monospace" x="5056" y="2240" textLength="4352">P0[5](2)(invalid)</text>
<text fill="#a0a0a0" font-size="464" font-family="monospace" x="10816" y="576" textLength="256">7</text>

</svg>